/* XPM */
static const char *lingotlogo[] = {
/* columns rows colors chars-per-pixel */
"80 80 257 2",
"   c black",
".  c #2E4E41EA1FB9",
"X  c #2F7542BE2093",
"o  c #348B44B92376",
"O  c #39E8475526C6",
"+  c #3B8D48A42821",
"@  c #3E2349B12992",
"#  c #42BB4C972CB8",
"$  c #47474FF73052",
"%  c #48FB503430FF",
"&  c #4CD853213414",
"*  c #51CB55B43725",
"=  c #564F5A4C3B43",
"-  c #5A7D5D3C3E4E",
";  c #529657CF388C",
":  c #5C5B603040B4",
">  c #5E896199422C",
",  c #60A75D8440D7",
"<  c #63CD64104550",
"1  c #674F67624883",
"2  c #678169444994",
"3  c #6C8E6CCB4D3A",
"4  c #68DA665B4854",
"5  c #6F0671D250C7",
"6  c #70DE6D2F4EF6",
"7  c #7EF96D2055C3",
"8  c #7D3767F552BA",
"9  c #745F74285424",
"0  c #7683792557B9",
"q  c #7CB1741A57F4",
"w  c #7FD8776C59C7",
"e  c #7D4B7CD15BF3",
"r  c #7D6D82F15F40",
"t  c #79BC89195F75",
"y  c #75438A075D75",
"u  c #71C8929C6045",
"i  c #6D1E94FB5F0A",
"p  c #6DA59C5264E9",
"a  c #70079ECD6897",
"s  c #6FD995DC6258",
"d  c #7D7F8B87653F",
"f  c #7B278AA06300",
"g  c #75C694C46609",
"h  c #76F297BD6953",
"j  c #73D69D906BB3",
"k  c #7CA294916B2C",
"l  c #7AEA9C466E26",
"z  c #7EFA9DE57191",
"x  c #67DCA2C865E8",
"c  c #69B6A32F677E",
"v  c #6D33A3B96AD7",
"b  c #7054A9066EC7",
"n  c #72F4A3E06ECE",
"m  c #74D0A4A771B2",
"M  c #7511AB17734D",
"N  c #7AEDA601737E",
"B  c #7ABCACAF7811",
"V  c #7CD4AF197B14",
"C  c #7EFCB2657D9F",
"Z  c #84436ED0579C",
"A  c #864C6FE35915",
"S  c #88DA701159DC",
"D  c #820F70D157E3",
"F  c #85D473A35B19",
"G  c #83777C2A5EF3",
"H  c #89E8735A5BF1",
"J  c #8C4E794E5F9F",
"K  c #85587D7B6153",
"L  c #8D7577E36092",
"P  c #8DA17B94627A",
"I  c #8F237F6B6934",
"U  c #92DD7D2E6445",
"Y  c #93FC7F2569D2",
"T  c #812F81225F81",
"R  c #838B84A0628D",
"E  c #84518AE36654",
"W  c #8F4983806686",
"Q  c #8D5485E169D9",
"!  c #8CD68D956B97",
"~  c #87268DA668AF",
"^  c #90588ED67342",
"/  c #8D9E92D06DDC",
"(  c #857791776C44",
")  c #84029CB772D7",
"_  c #8DE597117233",
"`  c #8EA19A3D75CF",
"'  c #91A88511681E",
"]  c #93CC86706B43",
"[  c #949A8BF56DAD",
"{  c #995F833D67AA",
"}  c #9A7C850D6B28",
"|  c #9D7C8A5F6CA9",
" . c #96588B2B71A4",
".. c #9BC98BA5750F",
"X. c #9F898E617A67",
"o. c #935091BF6FC0",
"O. c #93EC961172E4",
"+. c #94C29BFD7561",
"@. c #97AE9EA37AE0",
"#. c #9A9895AD7646",
"$. c #9A109B6B7728",
"%. c #9B7E9E7579B6",
"&. c #98E9958A7AE9",
"*. c #8443A8D17B68",
"=. c #8120B2D17EA4",
"-. c #96F1A2117A1A",
";. c #9BF6A4EE7CEF",
":. c #9CD1A9A97FC5",
">. c #A17D8C156E36",
",. c #A42E8F787241",
"<. c #A1E18FC77BA7",
"1. c #A6F192E672F6",
"2. c #A39793257D69",
"3. c #AA4795E2753D",
"4. c #AE389A5D78AC",
"5. c #B30D9EE07BFF",
"6. c #B6C7A3137F4A",
"7. c #983F9F0B808C",
"8. c #8C8DAE8E8457",
"9. c #884BB0A5845A",
"0. c #84D2B602836E",
"q. c #8943B971878D",
"w. c #8D8FBB9A8BDB",
"e. c #8BD8B86388AD",
"r. c #95C6A3BD82AE",
"t. c #9F54ACF182B4",
"y. c #9A1DA87E8829",
"u. c #9168BDC38FD9",
"i. c #9701BC539207",
"p. c #A53F960382A8",
"a. c #A6DB9A3684C9",
"s. c #AC659BE684D9",
"d. c #AA7397B180C1",
"f. c #A5A4A40A861B",
"g. c #A1EDADE18417",
"h. c #A988AA688C0F",
"j. c #B018ABF193A6",
"k. c #A3CEB29F8728",
"l. c #A5AAB6FB8A31",
"z. c #A757BB5F8D2C",
"x. c #A981BF438FFC",
"c. c #AA06B6778D5A",
"v. c #AA8BC025916C",
"b. c #AFF6B2629531",
"n. c #B7BAA4C9831B",
"m. c #B9FFA681829E",
"M. c #BA8AA84D8A3E",
"N. c #B95EA8B58C7A",
"B. c #BDA2AE1797A2",
"V. c #B39EABAF95A1",
"C. c #B8B4B69B9CC1",
"Z. c #BC91AF6BA17F",
"A. c #BE02B505A4AF",
"S. c #BD15BCAEA5D5",
"D. c #B8A4BEB9A1FC",
"F. c #AC4FC5299459",
"G. c #AFB7C58C9903",
"H. c #AE87CB4B9844",
"J. c #AEC8CBF898BB",
"K. c #B413C5DE9DB1",
"L. c #B26ECE2A9CF0",
"P. c #B7B9C894A238",
"I. c #B553CFD5A1AE",
"U. c #BA0BC89DA479",
"Y. c #BB3BCA51A68D",
"T. c #BF93CD67AC76",
"R. c #BE7BC86BAA3F",
"E. c #B6DDD175A3D0",
"W. c #BA16D33EA74D",
"Q. c #BDD2D5B2AC06",
"!. c #C1CBAECD87BC",
"~. c #C315AFFE88E3",
"^. c #C5D5B3178B8F",
"/. c #C9C7B7C88EB1",
"(. c #CB2FB8E2903D",
"). c #CE7EBC989254",
"_. c #C684B6F19D30",
"`. c #D224BFD694C3",
"'. c #CA84BE10ABD3",
"]. c #C5FBB9F1A700",
"[. c #D4B0C3559720",
"{. c #D7A2C6AC99DF",
"}. c #D907C7749A12",
"|. c #DD3CCC359DE1",
" X c #C1D1CE48AF76",
".X c #C9DBC334AD40",
"XX c #C571CE8AB36D",
"oX c #CAD0CEDBB923",
"OX c #C105D785AFF8",
"+X c #C3DFD694B323",
"@X c #C548DA3FB579",
"#X c #C808DC02B94B",
"$X c #CC45D553BC6E",
"%X c #CAB8DDA2BCE1",
"&X c #C8DDD37DB87C",
"*X c #D7D2C9AFAB07",
"=X c #D951CCCEB2B0",
"-X c #DE22D322BC6C",
";X c #E140D06EA108",
":X c #E5B3D535A487",
">X c #EA6BD9F5A805",
",X c #EE1ADE3FABCD",
"<X c #E5C7D89CAE0C",
"1X c #E294D538B2DD",
"2X c #E830DB8CB90B",
"3X c #F37AE3D7AF6B",
"4X c #F619E709B22A",
"5X c #F752E925B732",
"6X c #F72CEA14BC70",
"7X c #D000D805C144",
"8X c #CEA1DFD7C17B",
"9X c #D311D51DC431",
"0X c #D29FDA28C4D8",
"qX c #D738DD50CAB4",
"wX c #DB3CDF0ECF59",
"eX c #DB3BD3BCC7E2",
"rX c #DDAADE16D202",
"tX c #CFCFE188C316",
"yX c #D2BAE2E4C6C8",
"uX c #D69AE57BCB88",
"iX c #D9EBE692CF48",
"pX c #DD68E4FCD35D",
"aX c #DE08EA70D50C",
"sX c #E3B1DB62C8FC",
"dX c #E4FEE0ABDAC4",
"fX c #E215DE2AD715",
"gX c #E5AAE293D5A7",
"hX c #E5B0E57EDC9B",
"jX c #E140EC3FD8B8",
"kX c #E45DEE6ADD4C",
"lX c #EC9CE5CAD492",
"zX c #F861EBA7C35E",
"xX c #F8ACEE49CB05",
"cX c #F913EC91C5FE",
"vX c #F958EF30CD2D",
"bX c #F9F4F083D281",
"nX c #F3AFEC22D68B",
"mX c #FA66F1D9D5EB",
"MX c #FB20F421DC8C",
"NX c #EDD8E516CCE0",
"BX c #E7CAF0BAE1C9",
"VX c #EAD5E7ADE2E7",
"CX c #ED07EA54E5DB",
"ZX c #E80DF10EE225",
"AX c #EA9DF261E5B6",
"SX c #EED8F47DEADD",
"DX c #F167F044EC18",
"FX c #F787F2AFE303",
"GX c #F246F639EE99",
"HX c #FC03F658E4BE",
"JX c #FCE7F857E952",
"KX c #FD88F974EA48",
"LX c #F4DDF7FFF1DD",
"PX c #F76AF9F8F4EF",
"IX c #F9B7FB74F7F9",
"UX c #FDC7FE48FD59",
"YX c None",
/* pixels */
"YXYXYXYXYXYXYXYXZ S H L Y ..<.p.X.X.X.X.X.X.p.X.X.....X...&...X......... ... ... . . .[  .} [ } [ ] ] ] ] ] ] ] Q ] ' ' ' Q Y Q W W W { H H S S YXYXYXYXYXYXYXYX",
"YXYXYXYXYXH H S H ..Z.eXdXVXVXVXVXVXhXhXVXaXrXpXrXrXrXqXqXuX0X0X7X7X7X#X&X$X&XXXXXXXXX XT.T.T.Y.U.U.P.P.K.K.G.G.F.F.F.x.x.x.x.x.F.F.z.:.:.$.W H H H J YXYXYXYXYX",
"YXYXYXYXYXS H Y ].DXUXUXUXUXUXIXPXPXLXLXGXSXSXAXAXAXkXkXkXjXaXaXiXiXiXiXuXyXtXtXtX%X%X#X#X@XQ.#XQ.Q.W.W.W.E.E.E.J.J.J.J.J.J.J.J.J.J.J.J.J.J.F.%.J H H YXYXYXYXYX",
"YXYXYXYXS S p.rXUXUXUXUXUXIXIXIXPXLXGXGXSXSXAXBXAXkXkXkXaXjXaXiXiXiXiXyXyXtXtXtX%X%X#X@X@X+XQ.Q.Q.W.Q.E.E.E.L.J.H.H.J.J.J.J.J.J.J.J.J.J.J.J.J.H.k.' H H YXYXYXYX",
"YXYXYXH S p.CXUXUXUXUXUXIXIXIXLXLXGXGXSXAXAXAXBXkXkXkXkXaXaXiXiXuXuXuXyXyXtX%X%X%X#X@X@X@X+XQ.Q.Q.Q.E.E.E.J.E.J.J.H.J.J.J.J.J.J.J.J.J.J.H.J.H.J.J.x.' H H YXYXYX",
"YXYXS Z <.VXUXUXUXUXUXUXIXPXLXLXLXSXSXAXAXZXBXBXkXaXkXaXiXpXiXiXuXyXyXyXtXtX%X%X#X@X@X@XQ.Q.Q.Q.W.W.E.I.E.J.J.J.J.J.J.J.J.J.J.J.H.J.H.J.J.J.J.J.J.J.z.{ S H YXYX",
"YXH Z Y eXUXUXUXUXUXIXIXPXLXLXLXGXSXAXAXAXZXBXkXkXkXaXaXiXiXiXiXyXyXtXtXtX%X%X#X#X@XQ.@XQ.Q.W.W.W.E.I.E.J.J.J.J.H.J.J.J.J.J.J.J.H.J.H.J.J.J.J.J.J.J.J.k.J H H YX",
"YXH H ].UXUXUXUXUXUXIXIXLXLXGXDXSXAXAXAXAXkXkXkXaXaXaXaXiXiXuXyXyXyXtX%X%X%X#X@X@X@X@XQ.Q.Q.W.W.E.I.J.J.J.J.J.J.H.J.J.J.J.J.J.J.J.J.J.J.J.H.H.J.J.J.J.H.$.H H YX",
"YXA ..CXUXUXUXUXIXIXIXLXLXGXSXSXSXAXAXAXkXkXaXkXaXaXiXiXuXuXuXyXyXtXtX%X%X#X#X@XQ.Q.Q.Q.Q.W.W.E.L.L.L.H.J.J.J.J.J.J.J.J.J.J.H.J.H.J.J.J.J.J.J.J.J.J.J.J.F.W S YX",
"A S ].UXUXUXUXIXIXIXLXLXLXSXSXSXAXBXBXkXaXkXaXaXaXiXiXiXuXuXyXyXtXtX%X%X%X#X@X@XQ.@XQ.Q.W.W.E.E.L.L.H.H.H.H.J.H.H.J.H.J.H.J.H.J.J.J.J.H.J.H.H.J.H.J.J.J.F.$.S S ",
"A Y dXUXUXUXIXIXPXLXLXGXSXSXSXAXAXBXkXkXkXaXaXaXaXiXiXuXuXyXtX%X#XR.D.C.b.h.f.f.f.f.k.h.h.c.G.G.L.L.H.H.J.J.H.J.J.J.J.J.H.J.J.J.H.J.H.J.J.J.J.J.J.J.H.J.H.z.W S ",
"S p.IXUXUXUXIXIXLXLXLXSXSXAXAXAXBXBXkXkXkXaXaXpXiXiXuX7XXXD.j.X.} ' P P U U { } { ' U U L P P ' [ $.:.F.F.J.H.H.J.H.J.H.J.J.H.J.J.J.J.J.J.H.H.J.H.J.J.J.J.F.{ H ",
"S A.UXUXUXIXPXLXLXLXSXSXAXAXAXAXkXkXkXkXjXaXiXpXyXXXj.#.U L U ..s.B.'.*X*X=X2X2X2X=X1X*X{._.M.4.>.U J J ] -.k.F.H.H.J.H.J.H.J.J.J.H.J.J.H.J.J.J.J.H.J.J.J.J.3.H ",
"S eXUXIXIXPXLXLXSXGXSXAXAXAXBXkXkXkXaXaXaXiX&Xb...P Y X.B.=XsXNXnXMXmXmXmXvXvXvXxXxXvXcXcX6X6X4X,X<X}.m.>.U J { %.c.H.J.J.J.H.J.J.J.J.H.J.J.J.J.J.J.H.J.J.J.:.T ",
"L fXUXUXPXLXLXLXGXSXAXAXAXBXkXkXkXkXaXiXXXs.U U <._.-XnXMXMXHXMXbXMXbXbXvXbXxXvXxXcXcXcXcXcX6X6X6X6X6X5X,X|.!.1.U J o.l.H.H.J.J.J.H.H.J.J.J.H.J.H.J.J.J.J.J.:.T ",
"Y dXIXPXLXLXGXGXSXAXAXAXBXkXkXkXaXpX.Xa.P ] N.eXnXHXHXMXMXMXMXmXbXbXbXbXbXvXcXxXcXcXcX6X6X6X6X6X5X5X5X4X4X4X4X,X}.6.U J [ k.H.J.J.J.J.J.J.H.J.J.J.J.J.H.J.J.z.W ",
"<.VXIXLXLXGXSXSXAXAXAXAXkXkXkXaX7Xs.U Y ].sXFXHXHXMXMXMXMXbXmXmXbXbXbXvXxXxXxXzXcXcXzXzX6X5X6X5X5X5X4X4X4X3X4X4X4X3X|.6.{ J #.z.H.H.H.J.H.J.J.J.J.J.J.H.J.J.x.' ",
"X.VXLXLXLXGXSXSXAXAXBXkXkXkXiXA.Y Y B.fXFXHXHXHXMXMXMXMXMXbXbXbXbXbXvXxXxXxXzXzX6XzX6X6X6X5X6X5X4X4X4X4X4X3X4X4X4X4X4X3X:X6.U W ;.F.J.H.J.H.H.J.H.J.J.J.J.J.x.' ",
"X.hXLXGXSXSXSXAXAXBXkXkXkXoXp.L a.eXHXJXHXHXHXMXMXMXMXMXmXbXbXbXvXvXxXxXxXzXzXzXcX6X6X6X6X5X4X5X4X3X4X4X;X4.|.4X4X4X4X4X4X4X}.1.T { :.H.J.H.H.J.J.H.J.H.J.J.x.' ",
"X.hXLXSXSXAXAXAXBXBXkXkXS.Y Y '.nXKXJXHXHXMXHXMXMXMXmXmXbXbXbXbXvXvXxXxXxXzXzXzX6X6X5X6X6X5X4X4X4X4X4X3X6.Z 1.,X4X4X4X4X4X4X4X>X/.{ W 4.H.H.H.H.J.J.J.J.J.J.x.' ",
"X.hXSXSXSXAXAXBXkXkXpXV.L p.sXJXHXHXHXHXHXMXMXMXMXmXmXbXmXvXbXvXvXxXxXcXzXzXzXzX6X6X6X5X4X4X4X4X4X4X4X:X{ J S /.4X4X4X4X4X4X4X4X4X;X1.T +.F.J.J.J.H.J.H.J.J.x.' ",
"X.hXSXAXAXAXBXBXBX9Xa.L N.lXKXJXHXHXHXHXMXMXMXMXMXmXbXbXvXvXvXxXxXxXcXcXzXzX6X5X6X6X5X5X4X4X4X4X4X4X4X(.H ( e Y :X4X4X4X4X4X3X4X4X4X>X6.J | x.J.J.J.J.J.J.J.x.W ",
"X.pXSXAXBXBXkXBXqXp.L ].FXJXJXHXHXHXHXMXMXMXMXMXmXbXbXbXmXvXxXxXcXcXcX6XzXzX6X6X6X5X5X5X4X4X4X4X4X4X3X3.W N y Z m.4X4X4X4X4X4X4X4X3X4X3X^.{ W :.H.H.J.H.J.J.x.' ",
"X.fXAXAXBXBXkXqXp.Y '.FXJXJXHXHXHXHXMXMXMXMXbXbXmXbXbXbXvXvXxXxXcXcXcX6X6XzX6X5X5X5X4X4X4X4X4X4X4X4X>X{ O.=.p e J |.4X3X4X3X4X4X4X4X4X4X3X/.{ W x.J.J.J.J.J.x.{ ",
"X.rXAXZXkXkXwX7.U '.JXJXHXHXHXHXMXMXMXMXMXmXbXbXmXbXbXxXxXxXcXcXcXcX6X6X6X6X6X5X4X4X4X4X3X4X4X4X4X4X).L -.N d f Z 3.3X3X4X4X4X4X4X4X4X4X4X3X).{ ' F.J.H.H.H.F.' ",
"X.rXAXkXkXrXa.I '.JXJXJXHXHXHXMXMXMXMXMXMXmXbXbXbXbXvXxXxXxXcXcXcX6X6X6X6X6X6X4X4X4X4X4X4X4X4X4X4X4X6.P 8.f P ( T S [.3X4X3X4X4X4X4X4X4X4X4X3X/.J [ F.H.H.H.F.' ",
"..iXZXkXaXj.L ].FXJXJXHXHXHXMXMXMXMXMXbXbXbXbXbXvXvXxXxXcXzXzXzX6XcX6X6X6X5X5X4X4X4X4X4X4X4X4X4X4X>X{ ! m e Z ! u D 1.,X4X4X4X3X4X4X4X4X3X4X4X3X^.J $.H.H.H.x.{ ",
"X.qXkXkX'.L V.HXJXJXHXHXHXHXMXMXMXMXMXbXbXbXbXvXvXvXxXcXzXzXzXzX6X6X6X5X5X5X4X3X4X4X4X4X4X4X4X4X5X}.G ` a F Z P ) t H [.4X4X4X4X4X4X3X4X4X4X4X4X4X6.H :.H.H.x.W ",
"..qXBX9X} <.lXKXJXJXHXHXMXMXMXMXMXbXbXbXbXbXvXvXvXxXcXzXcXzXzXzX6X6X5X5X5X4X4X4X4X4X4X4X4X4X4X4X4Xn.P *.u D 1.P +.u G >.>X4X4X4X4X4X4X4X4X4X4X4X4X:X1.W z.J.F.W ",
"..qXrXa.U eXHXHXJXHXHXFXMXMXMXMXMXbXbXbXbXbXvXxXxXcXzXzXzXzX6X6X5X6X5X5X4X4X4X4X4X4X4X4X4X3X4X4X,X| W n r J [.| ! *.u H /.4X4X4X3X4X3X4X4X4X4X3X4X4X[.{ | F.F.W ",
"..0XA.H <.dXHXHXHXHXFXMXMXMXMXMXbXbXbXbXvXvXxXxXcXcXzXzX6X6X6X6X5X5X5X4X4X4X4X3X4X4X4X3X3X4X4X4X}.J ( v e | 3Xm.J :.a T 3.3X4X3X4X4X4X4X3X4X3X4X4X4X;X1.H ;.F.' ",
"..7XoX7.U ..'.nXFXMXMXMXMXMXbXbXbXbXbXbXvXxXcXxXcXzXzX6X6X6X6X6X6X5X4X4X3X4X4X4X4X4X4X4X4X4X4X3X!.J l g D 6.4X).G r.b T W :X4X4X3X4X4X3X4X4X4X4X>X^.| J o.:.F.W ",
"X.0XaXuXS.<.L <..XnXMXMXMXmXmXmXmXbXvXxXxXxXxXxX6XzX6X6X6X6X6X6X5X4X4X3X4X4X4X3X3X4X4X4X4X4X4X3X>.W n t Z {.4X|.J +.V d F {.4X4X4X4X4X4X4X4X>X/.>.J ' :.F.J.F.{ ",
" .$XiXuXuX%XC. .U <.*XnXmXMXvXmXvXvXxXxXcXcXcXzXzXzX6X6X6X6X4X4X4X4X4X4X4X4X4X4X4X4X4X4X4X4X3X|.U ! v e { :X4X,X'  .8.d S [.4X4X4X4X4X4X>X[.1.J { :.H.J.J.J.x.W ",
"..$XiXuXuXuXtX&Xb.] L d.=XxXvXvXvXvXxXxXcXxXzX6X6X6X6X5X5X5X5X4X4X3X4X3X3X4X3X4X4X3X4X4X4X4X4X!.J ) u D 6.3X3X>X{  .9.E Z {.5X4X4X4X3X[.1.J { ;.F.J.H.H.J.J.F.W ",
"X.$XuXuXyXtXtXtX#XXXh.U U s.=XvXvXxXcXcXcXcXzX6X6X6X5X5X5X4X4X4X4X4X4X4X4X4X4X4X4X4X3X4X4X4X3X3.T n y A (.4X4X;XH _ 9.d H }.5X4X3X}.3.U W $.F.F.H.H.J.H.J.J.z.W ",
" .$XuXyXyXtX%X%X#X#X@XR.2.' U n.1XcXcXzXxX6XzX6X6X6X5X5X4X4X4X4X4X4X4X3X4X3X3X3X3X3X4X4X4X4X:XP ! v r J :X4X3X~.F -.*.r { :X3X|.6.W J %.F.J.J.J.H.H.J.J.J.J.F.T ",
"..&XyXtXtX%X%X%X%X#X+X@XOXK.%.P ' M.1XzXcX6X6X6X6X6X5X5X4X4X4X4X4X4X3X>X{.^.6.6.6.n.~.[.:X4X/.Z ) p F >.4X4X;XU K *.l F 1.|.6.U J +.l.H.H.J.J.H.H.H.H.J.J.J.F.{ ",
"| &XyX8XtX%X%X#X#X#X@X+XQ.Q.T.v.#.J } B.<X6X6X5X5X5X6X4X4X4X3X4X3X}.6.{ U J J J F H L P } n.} P n u Z ~.4X|.| Z d N E Z >.{ J o.l.H.H.H.H.H.J.J.H.H.J.J.J.J.F.W ",
" .&XtX8X%X%X#X@X@XQ.OXQ.Q.Q.Q.W.L.c.[ J | ^.<X6X5X5X4X4X4X4X4X;X6.U J [ o.R J J P J G Q [ H 8 Q j T J |.,X>.Z E l k D Z J o.k.J.J.H.H.H.H.H.H.J.H.H.J.H.J.J.F.W ",
" .XX%X%X%X#X@X@XOXOXOXQ.Q.W.W.E.I.L.H.g.[ J >./.,X3X4X3X4X4X[.{ J o.:.] K  .&.r.@. .W F ^ ^ S k a w | 3X`.L d m l K Z Q g.F.J.J.J.J.H.J.H.J.J.J.J.J.J.H.H.H.F.' ",
" .XXtX%X#X#X@X+XOXOXQ.Q.E.E.E.I.L.L.L.J.G.:.Q J >.).,X4X3X`.{ U k.k.R ' y.i.i.u.w.w.8.` K 7 K l g Z 4.4X`.P d k K F @.G.J.J.J.J.H.J.J.J.H.J.H.J.H.H.J.J.H.H.l.{ ",
" . X%X#X#X@X@X+XQ.Q.Q.W.W.E.I.L.J.L.J.J.H.L.F.;.W J 1.[.}.U ' z.G.K U y.u.u.w.q.q.0.0.9.) L e a f 8 U {.(.H 7 H K t.H.H.J.J.J.J.J.J.H.J.J.H.J.J.J.J.J.J.H.J.z.W ",
"|  X%X@X@X@XQ.Q.Q.Q.W.W.E.L.L.L.J.J.J.J.H.H.H.H.x.;.W U U U l.J.+.F y.u.w.q.q.q.0.=.V M m k h n G F H U U P [ :.G.H.H.H.J.J.J.J.H.J.J.J.J.J.J.H.H.J.J.J.J.J.F.W ",
"[ T.#X#XQ.@XQ.Q.Q.W.W.E.L.L.L.J.J.J.J.J.H.H.H.J.J.J.F.+.W :.H.F.K Q w.q.0.0.0.C V b v v v v v h q ! t.I %.x.J.J.J.J.J.J.J.J.J.J.J.H.J.H.H.J.J.J.J.J.J.J.H.H.F.W ",
"} T.@X@XQ.Q.Q.Q.W.E.E.L.L.L.L.J.H.J.H.J.H.H.J.J.H.J.H.F.F.H.H.z.F +.0.0.C 0.C B b c c v v v m d Z :.F.F.J.J.J.J.J.F.J.J.J.J.J.J.J.H.J.J.J.J.H.J.J.H.J.H.H.H.F.W ",
" .Y.@XQ.Q.Q.Q.W.W.E.L.L.L.L.H.J.J.J.J.H.J.J.H.J.H.J.J.J.J.J.J.k.7 ) =.V V B M c p c c v v n n K F z.J.J.J.J.J.J.J.J.J.J.J.J.J.J.J.J.J.H.J.J.J.H.J.J.J.H.H.H.F.' ",
"] U.Q.+XQ.Q.W.W.E.E.L.L.J.H.J.J.H.J.J.J.H.H.J.J.J.H.J.J.J.J.J.t.Z h V V M M v x c v v v b m a q Q J.J.J.J.J.J.J.J.J.J.J.J.J.J.J.J.H.J.J.J.H.J.H.J.H.J.J.H.H.z.' ",
" .U.Q.Q.Q.W.W.E.J.I.L.J.J.J.J.J.H.J.J.J.J.H.H.J.J.J.J.H.H.J.J.k.Z g b b n c c x v v v v n m k Z @.J.J.J.J.J.H.J.J.H.J.J.H.J.J.H.H.J.J.J.J.H.J.J.J.J.H.J.J.J.F.W ",
"} U.Q.Q.W.W.I.E.E.J.J.J.J.J.J.J.J.J.H.J.J.J.J.J.J.H.J.J.J.J.J.z.F r c v c c c v v v v v m n G F z.J.J.J.H.J.J.H.H.J.H.J.J.H.H.J.J.J.H.J.J.J.H.J.H.J.J.J.H.J.F.W ",
"! P.Q.W.W.I.E.E.J.J.J.J.J.J.J.J.H.J.J.J.H.J.H.H.J.J.J.H.H.J.H.H.o.w i x x c c v v m v m m h F O.H.J.J.J.H.J.H.J.J.J.H.H.J.J.J.J.H.J.H.J.J.J.J.J.J.J.H.J.H.H.F.' ",
"] P.W.E.E.E.L.J.J.J.J.J.J.J.J.J.J.J.H.H.J.J.J.J.H.H.J.J.H.H.H.J.z.J w p c c v v v v m m j G K z.J.J.J.J.J.J.J.J.J.H.J.J.H.H.J.H.J.J.J.J.H.J.H.J.J.H.J.J.H.H.z.' ",
"' K.W.E.I.J.J.J.J.J.J.J.J.J.J.J.J.J.H.J.J.J.J.J.J.J.J.J.J.H.H.J.J.;.F r p v v b m n m j e F :.H.J.J.J.H.J.J.H.J.H.J.J.H.J.J.H.J.H.J.J.J.J.J.J.J.H.J.H.J.J.J.z.W ",
"' K.E.I.E.J.J.H.J.J.J.J.J.J.J.J.H.J.J.J.H.H.J.H.H.J.H.J.J.J.J.J.J.H.;.J F r g h h g f K F -.H.H.J.J.J.J.H.J.J.J.J.H.J.J.H.J.J.H.J.J.J.H.H.J.J.J.J.J.J.J.J.J.F.' ",
"] G.I.I.J.J.J.H.H.J.J.J.J.J.J.J.J.J.H.J.J.J.J.J.J.J.J.J.H.H.J.H.J.J.H.k.! F F F F Z 7 I t.J.J.J.J.H.J.H.J.J.J.J.J.H.J.H.H.J.J.H.H.J.H.J.J.J.J.J.H.J.J.J.J.J.F.W ",
"] G.I.J.G.@.O.l.F.J.J.J.J.J.J.J.H.J.J.J.H.J.H.J.J.H.J.H.J.J.J.J.J.J.J.J.F.z.+.o.o.O.y.F.J.J.J.H.J.J.J.J.J.H.J.H.H.J.J.H.J.J.H.J.J.J.J.J.H.J.J.J.J.J.J.J.J.J.F.W ",
"' F.L.L.-.; # 5 F.H.J.J.J.J.J.J.J.J.J.J.J.J.J.J.J.J.J.J.H.J.J.J.J.J.J.J.J.J.J.J.J.J.J.J.J.J.J.J.J.J.J.J.J.J.J.J.J.J.J.J.J.J.J.H.H.J.J.J.J.H.J.F.F.H.J.J.H.H.F.' ",
"' F.J.J._ # . 1 x.J.J.J.J.J.J.J.J.J.J.J.H.J.H.J.H.J.H.J.J.J.J.J.J.J.J.F.J.J.J.J.J.J.J.J.J.J.J.J.J.J.J.J.J.J.J.J.J.H.H.J.H.J.J.J.J.J.J.H.J.J.F.T 3 -.H.L.H.H.z.' ",
"' x.J.J.+.& o e F.J.J.J.J.J.J.J.J.J.J.J.J.H.J.J.J.J.J.J.H.J.J.J.J.J.J.J.J.J.J.J.J.J.J.J.J.J.J.J.J.J.J.J.J.J.J.J.H.H.J.J.J.J.H.J.H.J.H.H.J.F.+.$ o - +.:.z.H.z.' ",
"Q F.J.J.+.$ + T G.F.J.J.J.J.J.J.J.J.J.J.J.J.J.H.J.H.J.J.J.J.J.J.J.J.J.J.J.J.J.J.J.J.J.J.J.J.J.J.J.J.J.F.J.J.J.J.J.J.H.J.J.H.J.J.J.H.H.z.O.r - o X o $ * 3 :.F.' ",
"' z.H.J._ $ + ~ F.J.J.J.J.J.F.J.J.J.J.J.J.J.J.J.J.J.J.J.J.J.J.J.J.J.J.J.J.J.J.J.J.J.J.J.J.F.F.F.J.J.J.J.J.J.J.J.H.H.J.J.J.H.J.J.J.J.F.0 # o X X X o + + & #.F.' ",
"' F.J.J._ # + o.J.J.J.J.J.J.J.J.J.J.J.J.z./ E :.F.J.J.J.J.J.J.J.J.J.J.J.J.J.J.J.J.J.J.F.t.T 0 T t.J.J.J.J.J.J.J.H.F.F.F.H.J.H.J.J.J.F.T > > $ . O 2 T ! +.F.z.' ",
"U F.J.J._ # + O.J.J.J.J.J.J.J.J.J.J.J.J.+.& O 9 z.J.J.J.H.z.-.l.J.J.F.J.J.J.J.J.J.J.J.-.> O . + 0 F.J.J.J.J.J.x./ 5 2 5 ` z.J.J.J.H.H.F.l.:.1 . $ +.J.J.J.J.x.Q ",
"T F.J.J./ # + +.J.J.J.J.J.J.J.J.J.J.J.J.:.6 < / H.J.J.J.z.0 ; e k./ r -.F.J.J.J.J.J.z.5 o @ O o 5 x.J.J.J.J.F.~ & + + o # 0 F.J.J.J.H.H.H.F.> . * :.J.J.H.J.x.Q ",
"U z.L.H./ # + +.J.J.J.J.J.J.J.H.J.J.J.H.-.< < ;.L.J.J.J.:.* . - < # O ; / J.H.H.J.J.:.- o 7 = X 0 H.J.J.J.J.F.4 X - 0 & X % / F.H.H.J.J.J.:.- X = l.J.J.J.J.z.J ",
"J l.J.J.! @ # +.J.J.J.J.J.J.J.H.J.H.J.F.9 o # T J.J.J.J.:.* . o X # # X < F.H.H.J.J.:.- O , % X 6 F.J.J.J.J.:.- o T F.! & o = +.J.H.J.J.J.;.& X < z.J.J.J.J.l.H ",
"H :.L.H.! + + O.H.H.J.J.J.J.J.H.J.J.J.F.1 X * ;.J.J.J.J.+.$ . . # T G o % $.H.H.J.J.H.9 o X X X - :.J.J.H.H.F.- O r H.J.T O o T F.J.J.J.J.! + o 5 F.J.H.J.J.k.H ",
"H $.J.H.T o + 6 T ! +.+.:.k.F.H.J.J.J.:.= X - z.J.J.J.J.! @ . O 9 F.~ o + / H.H.J.J.J.:.6 - - # @ / J.J.H.H.F.9 O > :.:.T O X T F.J.J.J.J.~ O O T F.J.H.J.J.$.H ",
"S ! H.l.2 X X o @ # @ # * - e z.J.J.J.;.& o 3 F.H.H.H.H.T # . = :.H./ # # T F.J.J.J.L.J.F.F.:.r O 3 :.H.J.J.H.$.; + > < # o - +.J.H.J.J.F.T O O / H.H.H.J.F.] S ",
"S J l.F.T < < 3 5 5 3 1 - & 4 -.J.J.J.:.1 - _ H.H.H.H.H.-.2 < ! H.H.:.2 * T F.J.H.F.:.H.H.H.J.+.% # / H.J.J.H.H.+.< & & = 3 +.F.J.J.J.J.H.+.3 3 g.J.H.H.J.z.J S ",
"S H 3.H.F.l.l.F.F.F.H.x.k.-.:.H.J.J.J.H.k.:.H.J.H.H.H.H.F.F.l.H.H.H.H.:.-.F.H.J.H.T < T F.H.H.F.3 o 3 F.J.H.H.H.J.z.-.;.:.F.H.H.J.J.H.J.J.H.:.H.H.H.J.J.J.+.H S ",
"YXS T F.J.H.H.H.J.J.J.J.J.J.J.J.J.J.J.J.H.H.H.H.J.H.H.H.H.J.J.H.H.H.H.H.H.H.J.J.F.r o & T :.:.:.> o 5 F.J.H.H.H.J.J.J.J.J.J.J.J.J.J.J.J.H.J.J.J.J.J.J.J.x.' H YX",
"YXH S $.H.H.H.J.J.J.J.H.J.J.J.J.J.H.J.H.J.J.J.J.J.J.J.J.H.H.J.J.J.J.H.J.H.J.J.J.J.:.3 # + = = * @ - +.H.J.H.J.H.J.H.J.J.J.J.J.J.H.J.H.J.J.J.J.J.J.J.J.H.$.H H YX",
"YXH H J k.J.H.H.J.H.J.J.J.J.J.J.J.J.J.J.H.J.H.H.J.H.J.H.J.J.H.J.H.J.J.J.H.J.H.J.J.L.:.~ 9 > 2 3 T :.H.H.J.J.J.J.J.J.H.J.H.J.H.J.J.J.J.J.J.H.H.J.H.J.L.:.P S H YX",
"YXYXH S Q z.J.J.J.H.J.H.J.J.J.J.H.J.H.J.J.J.J.J.J.J.J.J.H.J.J.J.J.J.J.J.J.H.J.J.J.J.J.J.F.:.F.F.H.H.H.H.H.J.H.H.J.J.J.J.J.J.H.H.J.J.H.J.H.H.H.H.H.H.F.W S H YXYX",
"YXYXYXH H [ x.J.J.J.J.J.J.J.J.J.J.J.J.J.J.H.H.J.H.J.H.J.J.J.J.H.H.J.J.J.J.J.J.H.J.J.J.J.J.L.H.H.H.H.H.H.J.J.H.H.H.J.H.J.H.J.H.H.H.J.H.J.H.H.H.H.H.F.{ H H YXYXYX",
"YXYXYXYXH H Q k.H.J.J.J.J.J.J.J.H.J.J.J.H.H.H.H.J.H.H.H.J.J.J.J.J.J.J.J.H.H.H.H.J.J.J.J.H.H.H.H.H.H.H.H.H.H.H.H.J.J.H.H.H.H.H.H.J.J.J.J.J.J.H.H.:./ H H YXYXYXYX",
"YXYXYXYXYXH H P %.x.J.J.J.J.J.J.J.J.J.J.H.F.H.H.J.H.H.H.J.J.J.J.J.J.J.J.H.H.H.F.J.J.J.J.H.F.H.H.H.H.H.H.J.J.H.H.J.J.H.F.J.H.H.H.J.J.J.L.J.J.F.$.W H H YXYXYXYXYX",
"YXYXYXYXYXH H H J U #.:.z.z.x.x.F.F.F.F.F.F.z.F.F.F.F.l.F.F.F.F.F.z.F.F.F.F.F.F.F.F.F.F.F.F.z.F.F.F.z.F.F.F.F.z.F.F.F.F.F.F.F.z.F.F.z.:.:.$.W H S S S YXYXYXYXYX",
"YXYXYXYXYXYXYXYXJ S S J J ' ' ' W ' { T W { W W W W W W W W W W W W W ' ' T W { T { W W { W W W W W W W W W W W W W W W W W W W W { W J W H S S YXYXYXYXYXYXYXYX"
};
